<?xml version="1.0" encoding="utf-8"?>
<svg version="1.1" id="svg2" width="2560" height="1440" xmlns="http://www.w3.org/2000/svg">
  <defs id="defs6">
    <clipPath clipPathUnits="userSpaceOnUse" id="clipPath16">
      <path d="M 0,1080 H 1920 V 0 H 0 Z" id="path14"/>
    </clipPath>
  </defs>
  <g id="g8" transform="matrix(1.3333333,0,0,-1.3333333,0,1440)">
    <g id="g10">
      <g id="g12" clip-path="url(#clipPath16)">
        <g id="g18" transform="translate(731.782,422.9343)">
          <path d="m 0,0 c 33.927,-85.291 115.669,-146.451 212.275,-146.698 92.29,-0.236 171.662,54.542 207.919,133.27 6.169,15.763 7.563,33.825 7.563,51.774 0,77.114 -62.514,139.628 -139.628,139.628 -40.358,0 -76.695,-17.143 -102.187,-44.519 -20.084,15.199 -45.099,24.227 -72.228,24.227 C 47.54,157.682 -6.105,104.037 -6.105,37.863 -6.105,24.631 -3.961,11.901 0,0" style="fill:#e81a4b;fill-opacity:1;fill-rule:nonzero;stroke:none" id="path20"/>
        </g>
        <g id="g22" transform="translate(731.782,422.9343)">
          <path d="m 0,0 c 33.927,-85.291 115.669,-146.451 212.275,-146.698 92.29,-0.236 171.662,54.542 207.919,133.27 6.169,15.763 7.563,33.825 7.563,51.774 0,77.114 -62.514,139.628 -139.628,139.628 -40.358,0 -76.695,-17.143 -102.187,-44.519 -20.084,15.199 -45.099,24.227 -72.228,24.227 C 47.54,157.682 -6.105,104.037 -6.105,37.863 -6.105,24.631 -3.961,11.901 0,0 Z" style="fill:none;stroke:#ffffff;stroke-width:2.043;stroke-linecap:butt;stroke-linejoin:miter;stroke-miterlimit:10;stroke-dasharray:none;stroke-opacity:1" id="path24"/>
        </g>
        <g id="g26" transform="translate(876.4938,635.0826)">
          <path d="m 0,0 c 18.036,-14.739 22.144,-39.552 22.144,-39.552 0,0 -25.134,-0.917 -43.17,13.822 -18.037,14.739 -22.145,39.552 -22.145,39.552 0,0 25.135,0.917 43.171,-13.822" style="fill:#5bd867;fill-opacity:1;fill-rule:nonzero;stroke:none" id="path28"/>
        </g>
        <g id="g30" transform="translate(942.6078,270.1543)">
          <path d="m 0,0 c -101.346,0.259 -187.099,64.42 -222.691,153.896 -4.155,12.485 -6.404,25.84 -6.404,39.72 0,69.421 56.277,125.698 125.698,125.698 28.46,0 54.702,-9.47 75.772,-25.415 26.743,28.719 64.862,46.703 107.2,46.703 80.898,0 146.479,-65.581 146.479,-146.479 0,-18.83 -1.461,-37.777 -7.934,-54.314 C 180.084,57.218 96.818,-0.247 0,0 m -61.101,373.979 c 27.126,-22.167 33.304,-59.486 33.304,-59.486 0,0 -37.801,-1.379 -64.927,20.788 -27.127,22.167 -33.305,59.486 -33.305,59.486 0,0 37.802,1.379 64.928,-20.788 m 62.115,91.308 c -132.685,0 -245.064,-120.38 -245.064,-250.825 0,-130.445 112.701,-222.857 245.386,-222.857 132.684,0 244.753,103.781 244.753,234.226 0,130.445 -112.391,239.456 -245.075,239.456" style="fill:#39b54a;fill-opacity:1;fill-rule:nonzero;stroke:none" id="path32"/>
        </g>
        <g id="g34" transform="translate(942.6078,270.1543)">
          <path d="m 0,0 c -101.346,0.259 -187.099,64.42 -222.691,153.896 -4.155,12.485 -6.404,25.84 -6.404,39.72 0,69.421 56.277,125.698 125.698,125.698 28.46,0 54.702,-9.47 75.772,-25.415 26.743,28.719 64.862,46.703 107.2,46.703 80.898,0 146.479,-65.581 146.479,-146.479 0,-18.83 -1.461,-37.777 -7.934,-54.314 C 180.084,57.218 96.818,-0.247 0,0 Z m -61.101,373.979 c 27.126,-22.167 33.304,-59.486 33.304,-59.486 0,0 -37.801,-1.379 -64.927,20.788 -27.127,22.167 -33.305,59.486 -33.305,59.486 0,0 37.802,1.379 64.928,-20.788 z m 62.115,91.308 c -132.685,0 -245.064,-120.38 -245.064,-250.825 0,-130.445 112.701,-222.857 245.386,-222.857 132.684,0 244.753,103.781 244.753,234.226 0,130.445 -112.391,239.456 -245.075,239.456 z" style="fill:none;stroke:#39b54a;stroke-width:2.122;stroke-linecap:butt;stroke-linejoin:miter;stroke-miterlimit:10;stroke-dasharray:none;stroke-opacity:1" id="path36"/>
        </g>
        <g id="g38" transform="translate(1093.8429,722.6173)">
          <path d="m 0,0 c 60.488,-42.633 100.85,-104.212 114.235,-177.099 11.051,-57.063 -4.518,-116.306 -30.479,-167.255 -41.548,-79.241 -112.267,-135.048 -202.567,-144.644 -107.913,-11.741 -220.851,47.322 -269.96,144.664 -37.604,73.345 -29.654,160.787 14.824,229.308 31.34,49.171 79.138,87.239 133.11,107.519 l 3.126,-7.483 c -115.506,-51.614 -196.158,-180.175 -149.689,-305.518 31.87,-85.774 115.359,-146.775 204.956,-159.622 10.022,-1.295 21.314,-2.422 31.375,-2.472 5.044,-0.256 10.664,0.012 15.738,0.172 1.507,0.062 3.759,0.079 5.24,0.24 2.035,0.209 11.234,0.867 13.061,1.192 3.734,0.481 9.242,1.352 12.988,1.846 5.141,1.03 10.295,2.026 15.409,3.173 1.853,0.479 11.006,2.951 12.664,3.38 81.45,24.217 141.439,91.803 169.538,170.446 14.014,39.364 21.071,82.2 12.816,123.585 -4.641,24.022 -12,47.667 -22.765,69.671 -13.922,28.234 -33.034,53.929 -55.799,75.653 -10.17,9.632 -21.012,18.556 -32.479,26.606 z" style="fill:#39b54a;fill-opacity:1;fill-rule:nonzero;stroke:none" id="path40"/>
        </g>
        <g id="g42" transform="translate(1095.9326,696.4199)">
          <path d="M 0,0 V 0 C 1.229,0.565 1.767,2.019 1.202,3.247 L -9.642,26.83 c -0.565,1.228 -2.019,1.766 -3.248,1.201 v 0 c -1.229,-0.565 -1.766,-2.019 -1.202,-3.247 L -3.247,1.202 C -2.682,-0.027 -1.229,-0.565 0,0 Z" style="fill:none;stroke:#39b54a;stroke-width:5.609;stroke-linecap:butt;stroke-linejoin:miter;stroke-miterlimit:10;stroke-dasharray:none;stroke-opacity:1" id="path44"/>
        </g>
        <g id="g46" transform="translate(1112.6459,724.9101)">
          <path d="M 0,0 V 0 C -0.09,1.349 -1.257,2.37 -2.606,2.28 L -28.505,0.553 c -1.349,-0.09 -2.37,-1.257 -2.28,-2.606 0.09,-1.349 1.257,-2.37 2.606,-2.28 L -2.28,-2.606 C -0.931,-2.516 0.09,-1.349 0,0 Z" style="fill:none;stroke:#39b54a;stroke-width:5.609;stroke-linecap:butt;stroke-linejoin:miter;stroke-miterlimit:10;stroke-dasharray:none;stroke-opacity:1" id="path48"/>
        </g>
      </g>
    </g>
  </g>
</svg>